<?xml version="1.0" standalone="no"?><!DOCTYPE svg PUBLIC "-//W3C//DTD SVG 1.1//EN" "http://www.w3.org/Graphics/SVG/1.1/DTD/svg11.dtd"><svg t="1754484418968" class="icon" viewBox="0 0 1024 1024" version="1.1" xmlns="http://www.w3.org/2000/svg" p-id="6819" xmlns:xlink="http://www.w3.org/1999/xlink" width="24" height="24"><path d="M482.048 777.472c-9.856 0-17.92 8.512-17.92 19.072v94.144c0 10.56 8.064 19.072 17.92 19.072 9.856 0 17.856-8.512 17.856-19.072v-94.144c0-10.56-8-19.072-17.92-19.072z m65.28 4.032c-9.92 0-17.984 8.64-17.984 19.328v139.904c0 10.624 8.064 19.264 18.048 19.264 9.984 0 18.048-8.64 18.048-19.264v-139.264a20.032 20.032 0 0 0-5.056-14.08 17.536 17.536 0 0 0-12.992-5.888z m206.784-333.184C758.592 189.312 557.888 72.064 544 64c-13.44 7.68-214.08 124.864-210.112 383.872-53.76 33.664-83.84 97.984-76.864 164.16 6.72 86.08 85.76 143.232 115.776 140.16 30.08-3.2 20.992-26.944 20.992-26.944l10.24-44.8s44.608 71.68 58.88 71.68h162.24c12.8 0 58.816-71.68 58.816-71.68l10.24 44.8s-8.768 24 21.12 26.88c29.76 2.944 108.992-54.016 115.712-140.16 6.848-65.92-23.296-130.048-76.928-163.648z m-210.112-12.8c-46.4 0-84.032-40.128-84.032-89.664S497.6 256.192 544 256.192c46.464 0 84.096 40.128 84.096 89.6 0 23.872-8.896 46.656-24.64 63.488s-37.12 26.24-59.456 26.24z m63.04 345.984c-9.856 0-17.856 8.576-17.856 19.072v67.264c0 10.56 8 19.072 17.92 19.072 9.792 0 17.792-8.512 17.792-19.072V800.64c0-10.496-8-19.072-17.856-19.072z" fill="#bfbfbf" p-id="6820"></path></svg>