<?xml version="1.0" standalone="no"?><!DOCTYPE svg PUBLIC "-//W3C//DTD SVG 1.1//EN" "http://www.w3.org/Graphics/SVG/1.1/DTD/svg11.dtd"><svg t="1754484825337" class="icon" viewBox="0 0 1024 1024" version="1.1" xmlns="http://www.w3.org/2000/svg" p-id="8040" xmlns:xlink="http://www.w3.org/1999/xlink" width="24" height="24"><path d="M537.031111 692.906667a36.864 36.864 0 0 1-0.739555 51.655111 35.953778 35.953778 0 0 1-46.250667 3.527111l-4.949333-4.323556L145.692444 390.257778a36.864 36.864 0 0 1 0.796445-51.768889 35.953778 35.953778 0 0 1 46.250667-3.470222l4.949333 4.323555 339.399111 353.507556z" fill="#BABABA" p-id="8041"></path><path d="M486.001778 692.906667a36.864 36.864 0 0 0 0.796444 51.655111c12.743111 12.515556 32.256 13.653333 46.250667 3.527111l4.949333-4.323556 339.399111-353.507555a36.864 36.864 0 0 0-0.796444-51.768889 35.953778 35.953778 0 0 0-46.250667-3.470222l-4.949333 4.323555-339.399111 353.507556z" fill="#BABABA" p-id="8042"></path></svg>